<?xml version="1.0" standalone="no"?>
<!DOCTYPE svg PUBLIC "-//W3C//DTD SVG 20010904//EN"
 "http://www.w3.org/TR/2001/REC-SVG-20010904/DTD/svg10.dtd">
<svg version="1.0" xmlns="http://www.w3.org/2000/svg"
 width="700.000000pt" height="700.000000pt" viewBox="0 0 700.000000 700.000000"
 preserveAspectRatio="xMidYMid meet">
<metadata>
Created by potrace 1.11, written by Peter Selinger 2001-2013
</metadata>
<g transform="translate(0.000000,700.000000) scale(0.100000,-0.100000)"
fill="#000000" stroke="none">
<path d="M1898 5845 c-2 -1 -37 -6 -78 -9 -168 -16 -413 -92 -573 -180 -183
-99 -391 -276 -510 -432 -166 -220 -278 -488 -317 -764 -11 -80 -15 -319 -6
-385 7 -47 17 -112 22 -139 47 -252 199 -560 368 -746 87 -95 2582 -2587 2606
-2602 35 -23 95 -30 142 -17 35 9 206 176 1327 1298 707 708 1302 1305 1321
1327 207 232 349 558 385 885 8 69 8 278 1 339 -61 484 -315 900 -711 1162
-364 242 -804 320 -1248 222 -203 -44 -445 -160 -622 -297 -56 -44 -120 -105
-325 -311 l-179 -178 -193 192 c-305 303 -389 370 -591 469 -228 111 -433 162
-679 166 -76 1 -139 1 -140 0z m262 -369 c203 -27 361 -87 540 -204 65 -42
159 -129 395 -363 258 -255 317 -309 350 -318 50 -14 60 -14 110 0 33 9 89 60
335 303 366 363 399 390 580 475 415 194 909 141 1274 -137 137 -104 275 -269
351 -421 61 -122 91 -212 124 -376 11 -53 8 -336 -4 -395 -40 -209 -125 -400
-247 -557 -23 -30 -251 -264 -507 -520 l-464 -464 -1216 1214 c-1250 1249
-1265 1263 -1402 1325 -26 12 -86 33 -135 47 -100 29 -256 40 -359 24 -441
-67 -762 -449 -749 -890 5 -175 54 -324 157 -479 16 -25 577 -593 1245 -1262
l1216 -1217 -24 -27 c-59 -64 -224 -224 -230 -224 -8 0 -2337 2326 -2418 2415
-72 79 -147 191 -194 292 -42 89 -92 248 -103 323 -4 25 -8 59 -10 75 -7 46
-6 225 1 275 37 281 150 518 341 716 205 211 475 345 748 370 39 3 71 7 72 8
5 5 173 -2 223 -8z m22 -750 c37 -13 89 -39 115 -56 27 -18 587 -571 1246
-1229 l1197 -1198 -111 -112 c-61 -61 -113 -111 -115 -109 -2 2 -533 532
-1181 1179 -648 647 -1193 1184 -1212 1194 -39 20 -80 22 -137 6 -100 -27
-149 -154 -98 -253 8 -15 545 -559 1194 -1207 l1178 -1180 -120 -120 c-66 -67
-123 -121 -127 -121 -14 0 -2411 2408 -2433 2445 -26 43 -63 133 -72 177 -4
15 -7 61 -7 101 -2 233 169 448 398 501 85 19 204 12 285 -18z"/>
</g>
</svg>
