<?xml version="1.0" standalone="no"?>
<!DOCTYPE svg PUBLIC "-//W3C//DTD SVG 20010904//EN"
 "http://www.w3.org/TR/2001/REC-SVG-20010904/DTD/svg10.dtd">
<svg version="1.0" xmlns="http://www.w3.org/2000/svg"
 width="700.000000pt" height="700.000000pt" viewBox="0 0 700.000000 700.000000"
 preserveAspectRatio="xMidYMid meet">
<metadata>
Created by potrace 1.11, written by Peter Selinger 2001-2013
</metadata>
<g transform="translate(0.000000,700.000000) scale(0.100000,-0.100000)"
fill="#000000" stroke="none">
<path d="M3261 6661 c-6 -9 -9 -11 -6 -4 3 7 -2 10 -12 8 -10 -2 -22 -4 -27
-4 -5 -1 -2 -8 5 -18 13 -15 12 -15 -9 -2 -14 9 -25 10 -30 4 -4 -5 -13 -11
-21 -13 -26 -6 -67 -40 -93 -79 -29 -44 -53 -85 -362 -621 -125 -216 -236
-407 -246 -425 -11 -18 -23 -39 -27 -47 -4 -8 -20 -37 -36 -65 -29 -49 -95
-162 -327 -565 -124 -215 -327 -567 -356 -617 -34 -58 -192 -338 -204 -361
-13 -26 -19 -52 -25 -100 -2 -18 -6 -36 -9 -41 -6 -10 23 -26 39 -22 6 1 4 -3
-3 -11 -11 -11 -15 -10 -22 2 -7 11 -9 5 -6 -20 6 -51 16 -70 35 -70 12 0 13
-2 3 -9 -10 -6 -4 -17 25 -44 42 -40 111 -79 124 -71 5 3 9 0 9 -7 0 -8 5 -7
17 2 9 8 14 9 10 3 -4 -7 2 -14 16 -18 36 -9 42 -7 21 9 -18 14 -17 15 8 4 15
-7 26 -15 23 -18 -9 -15 81 -9 100 7 19 16 19 16 6 0 -11 -15 -11 -18 2 -18 9
0 18 8 20 18 4 16 5 16 6 0 0 -10 5 -18 10 -18 5 0 12 8 14 18 4 16 5 16 6 0
1 -13 9 -17 37 -16 l36 1 -23 19 -24 19 28 -12 c15 -7 27 -16 27 -20 0 -4 19
-7 43 -6 27 1 41 6 40 14 -2 7 4 10 13 6 13 -5 13 -7 2 -14 -11 -7 -11 -9 1
-9 8 0 20 8 27 18 13 16 14 16 8 0 -3 -10 -1 -18 4 -18 6 0 13 8 15 18 4 16 5
16 6 -1 1 -14 9 -17 39 -14 20 1 43 7 51 11 10 6 12 5 7 -2 -4 -7 -1 -12 9
-12 9 0 13 5 10 10 -3 6 -1 10 4 10 6 0 11 -4 11 -10 0 -5 15 -8 33 -7 19 2
31 8 29 16 -1 7 2 10 8 6 6 -3 8 -11 5 -16 -7 -11 24 -7 44 5 10 6 12 5 7 -2
-4 -7 -1 -12 9 -12 9 0 13 5 10 10 -3 6 -1 10 4 10 6 0 11 -4 11 -10 0 -5 15
-8 33 -7 19 2 31 8 29 16 -1 7 2 10 8 6 6 -3 8 -10 6 -14 -3 -4 8 -8 24 -9 17
0 30 5 30 11 0 8 3 8 8 2 9 -12 75 -18 67 -5 -3 5 -1 12 5 15 6 4 9 1 8 -6 -2
-6 3 -14 10 -16 8 -3 10 2 6 14 -5 16 -4 16 7 -2 12 -19 12 -19 20 0 6 17 8
17 8 3 1 -13 9 -17 37 -16 l36 1 -23 19 -24 19 28 -12 c15 -7 27 -16 27 -20 0
-4 17 -7 38 -7 31 0 34 2 15 9 -30 11 -29 17 2 11 14 -2 25 -11 25 -21 0 -14
2 -14 10 -1 5 8 10 11 11 5 0 -5 4 -1 9 10 7 16 9 17 9 3 1 -23 108 -23 114 1
4 13 5 13 6 -1 1 -13 9 -17 37 -16 l36 1 -23 19 -24 19 28 -12 c15 -7 27 -15
27 -19 0 -4 23 -7 50 -7 30 0 50 4 50 11 0 7 3 7 8 1 9 -12 75 -18 67 -5 -3 5
-1 12 5 15 6 4 9 1 8 -6 -2 -6 3 -14 10 -16 8 -3 10 2 6 14 -5 16 -4 16 7 -2
12 -19 12 -19 20 0 6 17 8 17 8 3 1 -13 9 -17 37 -16 l36 1 -23 19 -24 19 28
-12 c15 -7 27 -16 27 -20 0 -10 47 -5 93 10 22 7 34 17 31 23 -4 7 -2 8 4 4
15 -9 60 15 97 52 17 16 91 135 165 263 363 632 690 1198 1145 1984 255 442
288 502 280 515 -3 5 -1 10 4 10 6 0 11 5 11 11 0 5 -4 8 -9 4 -5 -3 -13 -1
-16 5 -4 6 -3 10 2 9 19 -3 34 2 28 10 -3 5 0 13 5 16 7 5 5 12 -7 22 -10 8
-13 12 -7 9 7 -3 12 4 12 19 0 14 -4 22 -9 20 -4 -3 -11 -1 -14 5 -4 6 -1 9 7
8 18 -4 13 53 -5 67 -8 5 -12 15 -10 20 10 30 -129 125 -183 125 -13 0 -26 5
-29 10 -3 6 -15 10 -26 10 -10 0 -19 -4 -19 -10 0 -5 -5 -10 -11 -10 -6 0 -9
7 -6 15 5 11 1 12 -18 5 -16 -6 -25 -6 -25 0 0 6 -5 10 -11 10 -6 0 -9 -6 -6
-13 3 -8 -1 -14 -9 -14 -8 0 -13 5 -10 12 5 13 -42 14 -63 1 -9 -6 -12 -5 -8
0 3 6 -83 9 -218 9 -123 0 -221 -3 -218 -7 2 -5 -1 -8 -6 -8 -6 0 -11 5 -11
10 0 6 -5 10 -11 10 -6 0 -9 -6 -6 -13 3 -8 -1 -14 -9 -14 -8 0 -13 5 -11 11
6 14 -161 15 -182 2 -8 -5 -12 -5 -9 0 4 5 -13 9 -37 9 -24 0 -41 -3 -39 -7 3
-5 0 -8 -5 -8 -6 0 -11 5 -11 10 0 6 -5 10 -11 10 -6 0 -9 -6 -6 -13 3 -8 -1
-14 -9 -14 -8 0 -13 5 -11 11 5 13 -490 16 -510 3 -8 -5 -13 -4 -13 2 0 6 -5
11 -11 11 -6 0 -9 -6 -6 -13 3 -8 -1 -14 -9 -14 -8 0 -13 5 -11 11 5 14 -91
15 -112 2 -10 -6 -12 -5 -7 2 4 7 3 12 -3 12 -19 0 -21 -19 -4 -29 10 -6 13
-11 7 -11 -15 0 -36 25 -27 33 3 4 3 7 -2 7 -4 0 -14 -8 -22 -17 -12 -15 -14
-15 -10 -2 3 9 -1 16 -8 16 -7 0 -18 -7 -24 -16z m282 -6 c4 -8 3 -16 -1 -19
-4 -3 -9 4 -9 15 -2 23 3 25 10 4z m160 0 c4 -8 3 -16 -1 -19 -4 -3 -9 4 -9
15 -2 23 3 25 10 4z m141 3 c-5 -8 -2 -9 10 -5 10 4 15 3 11 -3 -7 -12 -35
-13 -35 -2 0 9 10 22 17 22 2 0 1 -5 -3 -12z m130 1 c3 -2 -10 -5 -29 -5 -18
0 -32 3 -30 7 5 7 52 6 59 -2z m230 -5 c3 -8 2 -12 -4 -9 -6 3 -10 10 -10 16
0 14 7 11 14 -7z m70 8 c2 -4 -5 -9 -17 -9 -17 -2 -19 0 -7 7 18 12 18 12 24
2z m229 -7 c4 -8 3 -16 -1 -19 -4 -3 -9 4 -9 15 -2 23 3 25 10 4z m160 0 c4
-8 3 -16 -1 -19 -4 -3 -9 4 -9 15 -2 23 3 25 10 4z m161 3 c-3 -5 -10 -6 -15
-3 -5 4 -9 1 -9 -6 0 -7 -3 -10 -6 -6 -9 9 3 24 20 24 8 0 13 -4 10 -9z
m-1360 -14 c3 -8 2 -12 -4 -9 -6 3 -10 10 -10 16 0 14 7 11 14 -7z m560 0 c3
-8 2 -12 -4 -9 -6 3 -10 10 -10 16 0 14 7 11 14 -7z m81 6 c-3 -5 -14 -10 -23
-9 -14 0 -13 2 3 9 27 11 27 11 20 0z m239 -6 c3 -8 2 -12 -4 -9 -6 3 -10 10
-10 16 0 14 7 11 14 -7z m81 6 c-3 -5 -14 -10 -23 -9 -14 0 -13 2 3 9 27 11
27 11 20 0z m479 -6 c3 -8 2 -12 -4 -9 -6 3 -10 10 -10 16 0 14 7 11 14 -7z
m141 6 c-3 -5 -12 -10 -18 -10 -7 0 -6 4 3 10 19 12 23 12 15 0z m-1655 -4 c0
-3 -4 -8 -10 -11 -5 -3 -10 -1 -10 4 0 6 5 11 10 11 6 0 10 -2 10 -4z m515
-14 c-3 -3 -11 0 -18 7 -9 10 -8 11 6 5 10 -3 15 -9 12 -12z m240 0 c-3 -3
-11 0 -18 7 -9 10 -8 11 6 5 10 -3 15 -9 12 -12z m320 0 c-3 -3 -11 0 -18 7
-9 10 -8 11 6 5 10 -3 15 -9 12 -12z m389 6 c-3 -4 -9 -8 -15 -8 -5 0 -9 4 -9
8 0 5 7 9 15 9 8 0 12 -4 9 -9z m436 -179 c0 -5 -5 -9 -12 -9 -6 0 -8 3 -5 7
4 3 1 13 -6 22 -11 14 -10 14 6 2 9 -7 17 -17 17 -22z m-10 -99 c0 -5 -5 -10
-11 -10 -5 0 -7 5 -4 10 3 6 8 10 11 10 2 0 4 -4 4 -10z m-3757 -2535 c-3 -9
-8 -14 -10 -11 -3 3 -2 9 2 15 9 16 15 13 8 -4z m-16 -100 c0 -8 -4 -15 -9
-15 -10 0 -11 14 -1 23 9 10 10 9 10 -8z m23 -99 c0 -3 -4 -8 -10 -11 -5 -3
-10 -1 -10 4 0 6 5 11 10 11 6 0 10 -2 10 -4z m705 -174 c-3 -3 -11 0 -18 7
-9 10 -8 11 6 5 10 -3 15 -9 12 -12z m96 -5 c-10 -9 -11 -8 -5 6 3 10 9 15 12
12 3 -3 0 -11 -7 -18z m160 0 c-10 -9 -11 -8 -5 6 3 10 9 15 12 12 3 -3 0 -11
-7 -18z m528 -3 c14 -12 -19 -1 -35 12 -18 14 -18 14 6 3 14 -6 27 -13 29 -15z
m511 16 c0 -5 -5 -10 -11 -10 -5 0 -7 5 -4 10 3 6 8 10 11 10 2 0 4 -4 4 -10z
m-1680 -10 c-8 -5 -19 -10 -25 -10 -5 0 -3 5 5 10 8 5 20 10 25 10 6 0 3 -5
-5 -10z m231 -8 c-7 -2 -18 1 -23 6 -8 8 -4 9 13 5 13 -4 18 -8 10 -11z m1119
4 c-7 -7 -13 -7 -20 0 -6 6 -3 10 10 10 13 0 16 -4 10 -10z"/>
<path d="M5035 5040 c-3 -5 -12 -7 -19 -4 -8 3 -17 0 -22 -7 -4 -7 -3 -10 4
-5 6 3 13 2 16 -3 7 -10 -19 -9 -30 1 -17 17 -138 -90 -192 -169 -25 -36 -213
-359 -265 -453 -16 -30 -33 -59 -37 -65 -7 -9 -95 -160 -141 -242 -55 -98
-293 -510 -299 -518 -22 -29 -80 -145 -73 -145 4 0 3 -4 -3 -8 -17 -11 -28
-52 -14 -52 7 0 7 -5 -2 -14 -9 -9 -13 -34 -12 -72 2 -77 1 -74 22 -67 16 5
16 5 0 -8 -21 -17 -14 -59 11 -59 11 0 13 -3 4 -8 -10 -6 -9 -13 4 -31 9 -13
26 -42 38 -65 31 -58 73 -132 108 -190 16 -28 38 -66 49 -84 10 -18 58 -102
107 -185 48 -84 168 -291 266 -462 98 -170 216 -375 262 -455 46 -80 89 -154
96 -165 6 -11 58 -101 116 -200 57 -99 116 -201 130 -226 252 -443 371 -639
416 -682 32 -31 56 -47 67 -44 9 3 16 0 15 -6 -2 -12 23 -17 38 -7 12 8 63 6
71 -3 4 -3 -10 -5 -30 -3 -21 2 -34 1 -31 -2 10 -10 85 -10 91 0 3 4 10 6 15
2 11 -6 106 45 145 79 44 37 106 132 244 372 73 127 166 288 208 359 41 72 82
144 92 160 84 150 256 446 271 468 11 15 19 29 19 32 0 3 14 28 30 56 17 28
27 56 24 62 -4 6 -2 8 3 5 6 -4 16 7 22 24 9 27 8 34 -7 45 -15 12 -15 12 6 7
13 -3 22 -1 22 6 0 7 -4 10 -9 6 -5 -3 -13 -1 -16 5 -4 6 -3 10 2 9 29 -5 32
3 28 75 -2 41 -9 84 -15 95 -6 12 -8 21 -4 21 3 0 2 6 -4 13 -10 12 -27 42
-82 142 -15 28 -115 201 -222 385 -107 184 -206 355 -220 380 -14 25 -49 86
-78 135 -29 50 -62 108 -75 130 -12 22 -123 213 -245 425 -122 212 -283 491
-358 620 -74 129 -143 247 -153 262 -11 14 -19 29 -19 33 0 13 -105 180 -134
213 -43 49 -120 85 -188 88 -32 1 -60 -2 -63 -6z m26 -17 c13 -16 12 -17 -3
-4 -17 13 -22 21 -14 21 2 0 10 -8 17 -17z m36 11 c-3 -3 -12 -4 -19 -1 -8 3
-5 6 6 6 11 1 17 -2 13 -5z m36 -11 c-3 -7 -8 -13 -12 -13 -4 0 -8 6 -8 13 0
8 6 14 13 14 7 0 10 -6 7 -14z m32 -3 c3 -5 1 -10 -4 -10 -6 0 -11 5 -11 10 0
6 2 10 4 10 3 0 8 -4 11 -10z m-1195 -1701 c0 -5 -4 -9 -8 -9 -5 0 -9 7 -9 15
0 8 4 12 9 9 4 -3 8 -9 8 -15z m-5 -38 c3 -5 2 -12 -3 -15 -5 -3 -9 1 -9 9 0
17 3 19 12 6z m18 -34 c3 -8 -1 -14 -8 -14 -7 0 -11 6 -8 14 3 7 6 13 8 13 2
0 5 -6 8 -13z m2 -66 c3 -5 0 -13 -6 -17 -7 -4 -9 -3 -5 4 3 5 0 13 -6 15 -9
4 -10 6 -1 6 6 1 14 -3 18 -8z m2905 -1037 c0 -8 -19 -13 -24 -6 -3 5 1 9 9 9
8 0 15 -2 15 -3z m-15 -32 c-3 -3 -11 0 -18 7 -9 10 -8 11 6 5 10 -3 15 -9 12
-12z m-1031 -1750 c2 -4 -5 -9 -17 -9 -17 -2 -19 0 -7 7 18 12 18 12 24 2z"/>
<path d="M365 3159 c-4 -6 -14 -8 -22 -5 -9 4 -12 2 -7 -7 5 -8 2 -7 -9 2 -11
8 -17 9 -17 3 0 -7 -7 -9 -17 -5 -11 4 -14 3 -9 -5 4 -7 -3 -10 -21 -9 -17 1
-27 -3 -26 -10 2 -7 -4 -10 -13 -6 -39 15 -141 -150 -113 -183 6 -8 16 -11 22
-7 6 3 7 1 3 -6 -6 -9 -11 -9 -21 -1 -10 8 -12 -4 -10 -61 2 -40 7 -75 12 -78
4 -3 8 -10 8 -16 1 -23 30 -91 66 -156 22 -38 39 -73 39 -79 0 -5 5 -10 10
-10 6 0 10 -4 10 -9 0 -5 19 -42 43 -83 24 -40 55 -93 69 -118 40 -71 274
-475 335 -579 31 -52 61 -104 67 -115 73 -139 219 -376 249 -405 42 -40 106
-79 140 -85 12 -3 22 -5 22 -7 0 -1 11 -3 25 -4 13 -1 30 5 37 14 11 14 12 14
8 0 -4 -12 1 -15 24 -15 17 0 28 3 25 7 -2 5 -10 7 -17 5 -7 -1 -9 -1 -4 1 4
3 5 9 2 13 -3 5 0 12 6 16 7 4 9 3 6 -3 -20 -32 101 -56 131 -26 17 16 27 17
44 0 15 -15 78 -21 78 -7 0 14 29 19 42 7 8 -7 20 -13 27 -15 12 -3 12 0 1 13
-11 13 -10 15 4 9 9 -3 16 -10 16 -14 0 -13 94 -7 108 7 17 16 27 16 44 0 15
-15 78 -21 78 -7 0 14 29 19 42 7 14 -13 101 -19 93 -7 -3 4 2 10 10 13 8 4
12 1 9 -6 -3 -8 10 -12 41 -14 25 0 45 3 45 7 0 14 29 19 42 7 22 -20 41 -20
34 0 -6 17 -5 17 8 1 17 -23 30 -23 22 0 -5 15 -5 15 6 1 9 -11 31 -15 76 -15
58 -1 79 8 50 19 -7 3 -3 4 8 4 12 -1 20 -6 18 -12 -3 -7 16 -11 55 -11 33 0
58 3 56 7 -3 4 2 9 10 12 8 4 12 1 9 -6 -3 -8 10 -12 41 -14 25 0 45 3 45 7 0
14 29 19 42 7 22 -20 41 -20 34 0 -6 17 -5 17 8 1 7 -10 17 -18 21 -18 4 0 4
8 1 18 -5 15 -5 15 6 1 9 -11 31 -15 76 -15 58 -1 79 8 50 19 -7 3 -3 4 8 4
12 -1 20 -6 18 -12 -3 -7 16 -11 55 -11 33 0 58 3 56 7 -3 4 2 9 10 12 8 4 12
1 9 -6 -3 -8 10 -12 41 -14 25 0 45 3 45 7 0 14 29 19 42 7 22 -20 41 -20 34
0 -6 17 -5 17 8 0 7 -9 17 -17 21 -17 4 0 4 8 1 17 -5 16 -5 16 6 2 13 -16 51
-23 42 -7 -3 5 -9 6 -14 3 -4 -3 -10 2 -13 10 -5 12 -2 12 18 3 14 -6 25 -15
25 -19 0 -12 94 -6 108 8 17 16 27 16 44 0 15 -15 78 -21 78 -7 0 14 29 19 42
7 8 -7 20 -13 27 -15 12 -3 12 0 1 13 -11 13 -10 15 4 9 9 -3 16 -10 16 -14 0
-13 94 -7 108 7 17 17 27 16 44 -1 18 -17 68 -18 85 0 14 14 43 9 43 -7 0 -5
5 -9 11 -9 5 0 7 5 4 10 -3 6 -1 10 4 10 6 0 11 -5 11 -11 0 -5 4 -8 10 -4 5
3 7 13 4 23 -5 14 -4 14 4 2 6 -8 8 -18 6 -22 -3 -4 6 -7 20 -6 13 1 22 6 20
10 -3 4 0 8 5 8 6 0 11 -4 11 -10 0 -5 5 -10 11 -10 6 0 8 10 5 23 -6 21 -5
21 4 2 10 -18 21 -20 115 -21 58 -1 105 2 105 6 0 14 29 19 42 7 22 -20 41
-20 34 0 -6 17 -5 17 8 0 17 -22 30 -22 22 0 -6 17 -5 17 8 0 10 -14 22 -16
47 -11 19 4 44 6 57 5 12 0 22 3 22 8 0 5 12 11 28 14 43 9 122 91 114 120 -1
4 4 7 11 7 7 1 5 6 -6 14 -16 12 -16 14 -2 20 11 4 14 2 9 -7 -4 -6 -4 -9 1
-5 4 4 9 23 11 42 2 29 0 34 -14 30 -14 -5 -15 -4 -2 5 22 15 23 61 2 61 -10
0 -13 3 -7 8 14 10 18 39 6 47 -6 3 -7 13 -4 22 4 10 2 14 -4 10 -6 -4 -10 3
-10 17 -1 20 -56 133 -108 218 -5 9 -17 29 -26 45 -9 15 -73 127 -144 248 -70
121 -141 245 -158 275 -17 30 -45 79 -64 108 -18 29 -33 55 -33 57 0 3 -45 82
-100 176 -55 94 -100 172 -100 174 0 10 -113 192 -137 219 -37 44 -129 100
-145 90 -20 -13 -38 -13 -38 -2 0 6 7 8 15 4 8 -3 15 0 15 5 0 6 -8 9 -19 6
-10 -2 -27 0 -37 6 -18 10 -18 10 -1 -10 12 -14 15 -23 7 -28 -6 -4 -9 -1 -8
7 2 8 -5 12 -20 11 -13 -2 -35 5 -50 14 l-27 17 18 -21 c14 -16 15 -23 6 -29
-7 -4 -10 -3 -5 4 10 16 -11 24 -34 12 -13 -7 -20 -7 -20 0 0 5 8 10 18 10 14
0 15 2 2 10 -10 6 -16 6 -18 0 -2 -6 -12 -5 -25 2 -22 11 -22 10 -4 -10 12
-13 15 -22 7 -27 -6 -4 -9 -1 -8 7 2 8 -5 12 -20 11 -13 -2 -35 5 -50 14 l-27
17 18 -21 c14 -16 15 -23 6 -29 -7 -4 -10 -3 -5 4 10 16 -11 24 -34 12 -13 -7
-20 -7 -20 0 0 5 8 10 18 10 14 0 15 2 2 10 -10 6 -16 6 -18 0 -2 -6 -12 -5
-25 2 -22 11 -22 10 -4 -10 12 -13 15 -22 7 -27 -6 -4 -9 -1 -8 7 2 8 -5 12
-20 11 -13 -2 -35 5 -50 14 l-27 17 18 -21 c14 -16 15 -23 6 -29 -7 -4 -10 -3
-5 4 10 16 -11 24 -34 12 -13 -7 -20 -7 -20 0 0 5 8 10 18 10 14 0 15 2 2 10
-10 6 -16 6 -18 0 -2 -6 -12 -5 -25 2 -22 11 -22 10 -4 -10 12 -13 15 -22 7
-27 -6 -4 -9 -1 -8 7 2 8 -5 12 -20 11 -13 -2 -35 5 -50 14 l-27 17 18 -21
c14 -16 15 -23 6 -29 -7 -4 -10 -3 -5 4 10 16 -11 24 -34 12 -13 -7 -20 -7
-20 0 0 5 8 10 18 10 14 0 15 2 2 10 -10 6 -16 6 -18 0 -2 -6 -12 -5 -25 2
-22 11 -22 10 -4 -10 12 -13 15 -22 7 -27 -6 -4 -9 -1 -8 7 2 8 -5 12 -20 11
-13 -2 -35 5 -50 14 l-27 17 18 -21 c14 -16 15 -23 6 -29 -7 -4 -10 -3 -5 4
10 16 -11 24 -34 12 -13 -7 -20 -7 -20 0 0 5 8 10 18 10 14 0 15 2 2 10 -10 6
-16 6 -18 0 -2 -6 -12 -5 -25 2 -22 11 -22 10 -4 -10 12 -13 15 -22 7 -27 -6
-4 -9 -1 -8 7 2 8 -5 12 -20 11 -13 -2 -35 5 -50 14 l-27 17 18 -21 c14 -16
15 -23 6 -29 -7 -4 -10 -3 -5 4 10 17 -11 24 -36 12 -23 -11 -23 -11 -3 5 20
17 20 17 -2 10 -16 -4 -23 -2 -23 7 0 10 -3 9 -10 -2 -9 -13 -11 -13 -21 0 -9
12 -10 12 -5 -4 6 -18 5 -18 -20 -1 -15 9 -23 12 -19 5 9 -14 -26 -10 -38 5
-5 6 -7 1 -4 -10 3 -15 -1 -21 -14 -21 -13 0 -15 3 -7 13 11 14 7 15 -42 15
-14 0 -34 -3 -44 -8 -15 -6 -17 -4 -11 7 8 12 6 12 -9 0 -15 -13 -19 -13 -28
0 -8 11 -9 11 -4 -3 3 -12 1 -15 -10 -11 -7 3 -14 10 -14 17 0 6 -5 4 -10 -4
-9 -13 -11 -13 -20 0 -7 11 -10 11 -10 2 0 -8 -5 -10 -12 -6 -7 5 -9 2 -6 -7
4 -10 -1 -15 -13 -15 -13 0 -15 4 -8 12 7 8 6 14 -1 19 -5 3 -10 1 -10 -5 0
-8 -6 -8 -20 0 -19 10 -24 5 -22 -20 0 -3 -8 -6 -19 -6 -18 0 -19 2 -4 12 9 7
12 15 6 18 -5 3 -11 0 -14 -6 -3 -10 -8 -9 -22 2 -15 12 -17 12 -10 1 6 -11 4
-13 -9 -8 -10 4 -15 3 -11 -3 3 -6 -1 -7 -9 -4 -9 3 -13 11 -9 18 4 6 -1 5
-11 -3 -15 -13 -19 -13 -27 0 -7 11 -9 11 -9 0 0 -9 -4 -10 -12 -4 -15 10 -84
9 -112 -3 -15 -6 -17 -4 -11 7 8 12 6 12 -9 0 -15 -13 -19 -13 -28 0 -8 11 -9
11 -4 -3 3 -12 1 -15 -10 -11 -7 3 -14 10 -14 17 0 6 -5 4 -10 -4 -9 -13 -11
-13 -20 0 -7 11 -10 11 -10 2 0 -8 -5 -10 -12 -6 -7 5 -9 2 -6 -7 4 -10 -1
-15 -13 -15 -13 0 -15 4 -8 12 7 8 6 14 -1 19 -5 3 -10 1 -10 -5 0 -8 -6 -8
-20 0 -19 10 -24 5 -22 -20 0 -3 -8 -6 -19 -6 -18 0 -19 2 -4 12 9 7 12 15 6
18 -5 3 -11 0 -14 -6 -3 -10 -8 -9 -22 2 -15 12 -17 12 -10 1 6 -11 4 -13 -9
-8 -10 4 -15 3 -11 -3 3 -6 -1 -7 -9 -4 -9 3 -13 11 -9 18 4 6 -1 5 -11 -3
-15 -13 -19 -13 -27 0 -7 11 -9 11 -9 0 0 -9 -4 -10 -12 -4 -15 10 -84 9 -112
-3 -15 -6 -17 -4 -11 7 8 12 6 12 -9 0 -15 -13 -19 -13 -28 0 -8 11 -9 11 -4
-3 3 -12 1 -15 -10 -11 -7 3 -14 10 -14 17 0 7 -3 6 -9 -2 -9 -14 -31 -13 -44
3 -5 6 -7 1 -4 -10 3 -15 -1 -21 -14 -21 -13 0 -15 4 -8 12 6 8 7 14 0 18 -5
4 -12 -3 -16 -14 -7 -20 -25 -28 -25 -10 0 6 5 10 11 10 5 0 7 5 4 10 -4 6
-12 7 -18 3 -21 -13 -58 -13 -50 0 4 7 -1 6 -11 -2 -15 -13 -19 -13 -28 0 -8
11 -9 10 -4 -5 6 -18 5 -18 -20 -1 -15 9 -23 12 -19 5 9 -14 -26 -10 -38 5 -5
6 -7 1 -4 -10 3 -15 -1 -21 -14 -21 -13 0 -15 4 -8 12 6 8 7 14 0 18 -5 4 -12
-3 -16 -14 -7 -20 -25 -28 -25 -10 0 6 5 10 11 10 5 0 7 5 3 11 -4 7 -9 8 -17
0 -7 -7 -16 -7 -30 0 -11 7 -17 7 -13 1 3 -5 -5 -9 -19 -9 -14 0 -22 4 -18 10
3 6 1 7 -6 3 -6 -4 -9 -12 -6 -17 3 -5 -1 -6 -9 -3 -9 3 -13 11 -9 18 4 6 -1
5 -11 -3 -15 -13 -19 -13 -27 0 -6 10 -9 11 -9 1 0 -8 -5 -10 -12 -6 -7 5 -9
2 -6 -7 4 -10 -1 -15 -13 -15 -12 0 -15 4 -9 10 15 15 12 30 -4 17 -10 -9 -16
-9 -21 -1 -5 8 -11 8 -21 -1 -7 -6 -12 -14 -10 -18 3 -4 -4 -7 -14 -7 -10 0
-16 4 -14 8 3 4 0 8 -6 8 -6 0 -8 5 -4 13 5 7 1 7 -10 -2 -15 -13 -19 -13 -28
0 -8 11 -9 10 -4 -5 6 -18 5 -18 -20 -1 -15 9 -23 12 -19 5 9 -14 -26 -10 -38
5 -5 6 -7 1 -4 -10 3 -15 -1 -21 -14 -21 -13 0 -15 4 -8 12 6 8 7 14 0 18 -5
4 -12 -3 -16 -14 -7 -20 -25 -28 -25 -10 0 6 5 10 11 10 5 0 7 5 4 10 -4 6
-12 7 -18 3 -18 -11 -58 -13 -52 -2 4 5 4 9 1 9 -3 0 -8 -5 -11 -11z m1012
-12 c0 -7 -9 -13 -19 -13 -18 0 -18 1 -2 13 10 7 18 13 19 13 1 0 2 -6 2 -13z
m37 -2 c-7 -16 -24 -21 -24 -6 0 8 7 13 27 20 1 1 0 -6 -3 -14z m39 2 c3 -7
-3 -13 -14 -13 -13 0 -15 3 -7 13 6 7 12 13 13 13 2 0 5 -6 8 -13z m404 0 c0
-7 -9 -13 -19 -13 -18 0 -18 1 -2 13 10 7 18 13 19 13 1 0 2 -6 2 -13z m37 -2
c-7 -16 -24 -21 -24 -6 0 8 7 13 27 20 1 1 0 -6 -3 -14z m39 2 c3 -7 -3 -13
-14 -13 -13 0 -15 3 -7 13 6 7 12 13 13 13 2 0 5 -6 8 -13z m404 0 c0 -7 -9
-13 -19 -13 -18 0 -18 1 -2 13 10 7 18 13 19 13 1 0 2 -6 2 -13z m37 -2 c-7
-16 -24 -21 -24 -6 0 8 7 13 27 20 1 1 0 -6 -3 -14z m-1960 -3 c2 -4 -4 -8
-14 -8 -10 0 -16 4 -14 8 3 4 9 8 14 8 5 0 11 -4 14 -8z m276 -2 c0 -5 -4 -10
-10 -10 -5 0 -10 5 -10 10 0 6 5 10 10 10 6 0 10 -4 10 -10z m204 2 c2 -4 -4
-8 -14 -8 -10 0 -16 4 -14 8 3 4 9 8 14 8 5 0 11 -4 14 -8z m240 0 c2 -4 -4
-8 -14 -8 -10 0 -16 4 -14 8 3 4 9 8 14 8 5 0 11 -4 14 -8z m516 -2 c0 -5 -4
-10 -10 -10 -5 0 -10 5 -10 10 0 6 5 10 10 10 6 0 10 -4 10 -10z m480 0 c0 -5
-4 -10 -10 -10 -5 0 -10 5 -10 10 0 6 5 10 10 10 6 0 10 -4 10 -10z m-1759
-17 c13 -16 12 -17 -3 -4 -10 7 -18 15 -18 17 0 8 8 3 21 -13z m179 13 c0 -2
-8 -10 -17 -17 -16 -13 -17 -12 -4 4 13 16 21 21 21 13z m61 -13 c13 -16 12
-17 -3 -4 -10 7 -18 15 -18 17 0 8 8 3 21 -13z m179 13 c0 -2 -8 -10 -17 -17
-16 -13 -17 -12 -4 4 13 16 21 21 21 13z m61 -13 c13 -16 12 -17 -3 -4 -10 7
-18 15 -18 17 0 8 8 3 21 -13z m179 13 c0 -2 -8 -10 -17 -17 -16 -13 -17 -12
-4 4 13 16 21 21 21 13z m61 -13 c13 -16 12 -17 -3 -4 -10 7 -18 15 -18 17 0
8 8 3 21 -13z m179 13 c0 -2 -8 -10 -17 -17 -16 -13 -17 -12 -4 4 13 16 21 21
21 13z m61 -13 c13 -16 12 -17 -3 -4 -17 13 -22 21 -14 21 2 0 10 -8 17 -17z
m179 13 c0 -2 -8 -10 -17 -17 -16 -13 -17 -12 -4 4 13 16 21 21 21 13z m61
-13 c13 -16 12 -17 -3 -4 -17 13 -22 21 -14 21 2 0 10 -8 17 -17z m179 13 c0
-2 -8 -10 -17 -17 -16 -13 -17 -12 -4 4 13 16 21 21 21 13z m61 -13 c13 -16
12 -17 -3 -4 -17 13 -22 21 -14 21 2 0 10 -8 17 -17z m179 13 c0 -2 -8 -10
-17 -17 -16 -13 -17 -12 -4 4 13 16 21 21 21 13z m61 -13 c13 -16 12 -17 -3
-4 -17 13 -22 21 -14 21 2 0 10 -8 17 -17z m179 13 c0 -2 -8 -10 -17 -17 -16
-13 -17 -12 -4 4 13 16 21 21 21 13z m61 -13 c13 -16 12 -17 -3 -4 -10 7 -18
15 -18 17 0 8 8 3 21 -13z m179 13 c0 -2 -8 -10 -17 -17 -16 -13 -17 -12 -4 4
13 16 21 21 21 13z m61 -13 c13 -16 12 -17 -3 -4 -17 13 -22 21 -14 21 2 0 10
-8 17 -17z m1040 0 c13 -16 12 -17 -3 -4 -17 13 -22 21 -14 21 2 0 10 -8 17
-17z m-3425 -145 c4 -7 4 -10 -1 -6 -4 4 -14 0 -22 -10 -13 -15 -13 -15 -3 6
12 25 16 27 26 10z m-6 -178 c0 -5 -5 -10 -11 -10 -5 0 -7 5 -4 10 3 6 8 10
11 10 2 0 4 -4 4 -10z m4430 -1324 c0 -2 -8 -10 -17 -17 -16 -13 -17 -12 -4 4
13 16 21 21 21 13z m8 -80 c-2 -1 -12 -8 -23 -16 -18 -14 -19 -14 -7 2 8 10
10 23 6 30 -6 9 -3 9 9 -1 10 -8 16 -14 15 -15z m-2288 -236 c0 -5 -5 -10 -11
-10 -5 0 -7 5 -4 10 3 6 8 10 11 10 2 0 4 -4 4 -10z m480 0 c0 -5 -5 -10 -11
-10 -5 0 -7 5 -4 10 3 6 8 10 11 10 2 0 4 -4 4 -10z m1600 0 c0 -5 -5 -10 -11
-10 -5 0 -7 5 -4 10 3 6 8 10 11 10 2 0 4 -4 4 -10z m-3200 -14 c0 -3 -4 -8
-10 -11 -5 -3 -10 -1 -10 4 0 6 5 11 10 11 6 0 10 -2 10 -4z m60 0 c0 -3 -4
-8 -10 -11 -5 -3 -10 -1 -10 4 0 6 5 11 10 11 6 0 10 -2 10 -4z m137 -11 c0
-8 -4 -12 -9 -9 -4 3 -8 9 -8 15 0 5 4 9 8 9 5 0 9 -7 9 -15z m158 5 c3 -5 1
-10 -4 -10 -6 0 -11 5 -11 10 0 6 2 10 4 10 3 0 8 -4 11 -10z m162 -5 c0 -8
-4 -12 -9 -9 -4 3 -8 9 -8 15 0 5 4 9 8 9 5 0 9 -7 9 -15z m158 5 c3 -5 1 -10
-4 -10 -6 0 -11 5 -11 10 0 6 2 10 4 10 3 0 8 -4 11 -10z m128 -5 c-3 -9 -8
-14 -10 -11 -3 3 -2 9 2 15 9 16 15 13 8 -4z m277 4 c0 -15 -18 -19 -23 -6 -3
8 1 14 9 14 8 0 14 -4 14 -8z m203 -4 c-3 -9 -8 -14 -10 -11 -3 3 -2 9 2 15 9
16 15 13 8 -4z m277 4 c0 -15 -18 -19 -23 -6 -3 8 1 14 9 14 8 0 14 -4 14 -8z
m203 -4 c-3 -9 -8 -14 -10 -11 -3 3 -2 9 2 15 9 16 15 13 8 -4z m354 0 c0 -8
-4 -12 -9 -9 -4 3 -8 9 -8 15 0 5 4 9 8 9 5 0 9 -7 9 -15z m158 5 c3 -5 1 -10
-4 -10 -6 0 -11 5 -11 10 0 6 2 10 4 10 3 0 8 -4 11 -10z m162 -5 c0 -8 -4
-12 -9 -9 -4 3 -8 9 -8 15 0 5 4 9 8 9 5 0 9 -7 9 -15z m158 5 c3 -5 1 -10 -4
-10 -6 0 -11 5 -11 10 0 6 2 10 4 10 3 0 8 -4 11 -10z m145 0 c0 -5 -2 -10 -4
-10 -3 0 -8 5 -11 10 -3 6 -1 10 4 10 6 0 11 -4 11 -10z m80 0 c0 -5 -2 -10
-4 -10 -3 0 -8 5 -11 10 -3 6 -1 10 4 10 6 0 11 -4 11 -10z m63 -5 c-3 -9 -8
-14 -10 -11 -3 3 -2 9 2 15 9 16 15 13 8 -4z m47 0 c0 -2 -6 -5 -13 -8 -8 -3
-14 1 -14 8 0 7 6 11 14 8 7 -3 13 -6 13 -8z m230 4 c0 -15 -18 -19 -23 -6 -3
8 1 14 9 14 8 0 14 -4 14 -8z m-2246 -11 c-3 -4 -11 -5 -19 -1 -21 7 -19 12 4
10 11 0 18 -5 15 -9z m206 8 c0 -2 -7 -7 -16 -10 -8 -3 -12 -2 -9 4 6 10 25
14 25 6z m274 -8 c-3 -4 -11 -5 -19 -1 -21 7 -19 12 4 10 11 0 18 -5 15 -9z
m206 8 c0 -2 -7 -7 -16 -10 -8 -3 -12 -2 -9 4 6 10 25 14 25 6z m274 -8 c-3
-4 -11 -5 -19 -1 -21 7 -19 12 4 10 11 0 18 -5 15 -9z m1326 8 c0 -2 -7 -7
-16 -10 -8 -3 -12 -2 -9 4 6 10 25 14 25 6z m-233 -12 c-3 -3 -12 -4 -19 -1
-8 3 -5 6 6 6 11 1 17 -2 13 -5z"/>
<path d="M635 3160 c-3 -5 -1 -10 4 -10 6 0 11 5 11 10 0 6 -2 10 -4 10 -3 0
-8 -4 -11 -10z"/>
<path d="M2620 3160 c0 -6 7 -10 15 -10 8 0 15 2 15 4 0 2 -7 6 -15 10 -8 3
-15 1 -15 -4z"/>
<path d="M2780 3160 c0 -6 7 -10 15 -10 8 0 15 2 15 4 0 2 -7 6 -15 10 -8 3
-15 1 -15 -4z"/>
<path d="M2940 3160 c0 -6 7 -10 15 -10 8 0 15 2 15 4 0 2 -7 6 -15 10 -8 3
-15 1 -15 -4z"/>
<path d="M3100 3160 c0 -6 7 -10 15 -10 8 0 15 2 15 4 0 2 -7 6 -15 10 -8 3
-15 1 -15 -4z"/>
<path d="M3260 3160 c0 -6 7 -10 15 -10 8 0 15 2 15 4 0 2 -7 6 -15 10 -8 3
-15 1 -15 -4z"/>
<path d="M3420 3160 c0 -6 7 -10 15 -10 8 0 15 2 15 4 0 2 -7 6 -15 10 -8 3
-15 1 -15 -4z"/>
<path d="M1425 1121 c-3 -6 3 -9 14 -8 11 0 17 5 15 9 -7 11 -22 10 -29 -1z"/>
<path d="M1556 1122 c-3 -5 1 -9 9 -9 8 0 12 4 9 9 -3 4 -7 8 -9 8 -2 0 -6 -4
-9 -8z"/>
<path d="M1745 1121 c-3 -6 3 -9 14 -8 11 0 17 5 15 9 -7 11 -22 10 -29 -1z"/>
<path d="M1876 1122 c-3 -5 1 -9 9 -9 8 0 12 4 9 9 -3 4 -7 8 -9 8 -2 0 -6 -4
-9 -8z"/>
<path d="M2116 1122 c-3 -5 1 -9 9 -9 8 0 12 4 9 9 -3 4 -7 8 -9 8 -2 0 -6 -4
-9 -8z"/>
<path d="M2596 1122 c-3 -5 1 -9 9 -9 8 0 12 4 9 9 -3 4 -7 8 -9 8 -2 0 -6 -4
-9 -8z"/>
<path d="M3076 1122 c-3 -5 1 -9 9 -9 8 0 12 4 9 9 -3 4 -7 8 -9 8 -2 0 -6 -4
-9 -8z"/>
<path d="M3345 1121 c-3 -6 3 -9 14 -8 11 0 17 5 15 9 -7 11 -22 10 -29 -1z"/>
<path d="M3476 1122 c-3 -5 1 -9 9 -9 8 0 12 4 9 9 -3 4 -7 8 -9 8 -2 0 -6 -4
-9 -8z"/>
<path d="M3665 1121 c-3 -6 3 -9 14 -8 11 0 17 5 15 9 -7 11 -22 10 -29 -1z"/>
<path d="M3796 1122 c-3 -5 1 -9 9 -9 8 0 12 4 9 9 -3 4 -7 8 -9 8 -2 0 -6 -4
-9 -8z"/>
<path d="M4196 1122 c-3 -5 1 -9 9 -9 8 0 12 4 9 9 -3 4 -7 8 -9 8 -2 0 -6 -4
-9 -8z"/>
</g>
</svg>
