<svg viewBox="0 0 242 40" xmlns="http://www.w3.org/2000/svg" fill-rule="evenodd" clip-rule="evenodd" stroke-linejoin="round" stroke-miterlimit="2"><path d="M22.771 23.082c-.316-.548-1.018-.993-1.567-.993H1.962c-1.875 0-2.519 1.522-1.436 3.398l4.894 8.477c.342.592 1.1 1.072 1.691 1.072H26.34c1.84 0 2.472-1.494 1.409-3.334l-4.977-8.62z" fill="#37deff"/><path d="M42.533 29.848c.317-.548.35-1.38.077-1.854L32.989 11.33c-.938-1.624-2.578-1.42-3.66.455l-4.895 8.477c-.342.592-.38 1.488-.083 2l9.613 16.652c.92 1.594 2.53 1.394 3.593-.447l4.976-8.62z" fill="#ff68e8"/><path d="M20.275 0c-.632 0-1.37.386-1.643.86L9.01 17.526c-.938 1.624.059 2.942 2.224 2.942h9.789c.683 0 1.478-.415 1.774-.928l9.614-16.651C33.332 1.294 32.354 0 30.228 0h-9.953z" fill="#992ffc"/><path d="M179.149 12.747c-2.817 0-5.771.727-8.407 2.499-.818.5-1.181 1.318-.499 2.5l.409.727c.59.999 1.363 1.181 2.272.636 1.59-1.091 3.635-1.772 5.816-1.772 3.136 0 5.044 1.636 5.044 4.271v1.227c-1.772-.727-3.771-1.227-5.907-1.227-5.817 0-9.725 3.09-9.725 7.725 0 4.363 3.59 7.317 8.907 7.317 2.908 0 5.544-1.227 7.498-3.136v.773c0 1.09.636 1.772 1.727 1.772h1.454c1.09 0 1.681-.636 1.681-1.772V22.29c0-6.726-4.544-9.543-10.27-9.543zm-55.893 13.315h15.722c1.364 0 1.864-.591 1.864-1.864 0-3.181-1.182-6.18-3.318-8.27-1.954-1.954-4.862-3.181-8.316-3.181-6.861 0-11.905 5.09-11.905 11.951 0 7.271 5.544 11.952 12.36 11.952 3.226 0 7.271-1.091 9.588-3.454.5-.545.864-1.227 0-2.09l-1.09-1.091c-.728-.773-1.364-.636-2.182 0-1.999 1.545-3.999 2.045-5.771 2.045-3.499 0-6.589-2.136-6.952-5.998zM239.723 3.659l-2.544.454c-1.091.273-1.682.727-1.682 1.772v9.089a11.396 11.396 0 00-6.771-2.227c-6.68 0-11.451 5.226-11.451 11.951 0 6.68 4.771 11.952 11.451 11.952 3.181 0 5.771-1.318 7.589-3.318v.955c0 1.09.591 1.772 1.681 1.772h1.818c1.091 0 1.727-.682 1.727-1.772V5.34c0-1.181-.591-1.909-1.818-1.681zM97.581 26.062h15.723c1.363 0 1.863-.591 1.863-1.864 0-3.181-1.182-6.18-3.317-8.27-1.954-1.954-4.863-3.181-8.316-3.181-6.862 0-11.906 5.09-11.906 11.951 0 7.271 5.544 11.952 12.36 11.952 3.227 0 7.271-1.091 9.588-3.454.5-.545.864-1.227 0-2.09l-1.09-1.091c-.727-.773-1.363-.636-2.181 0-2 1.545-3.999 2.045-5.771 2.045-3.5 0-6.59-2.136-6.953-5.998zM74.724 4.159c-1.091-.5-2.681-.818-4.227-.818-4.544 0-9.133 2.681-9.133 8.815v.955h-2.136c-1.091 0-1.727.59-1.727 1.681v1.136c0 1.091.636 1.727 1.727 1.727h2.136v16.632c0 1.09.636 1.772 1.726 1.772h2.636c1.091 0 1.681-.682 1.681-1.772V17.655h4.817c1.091 0 1.727-.636 1.727-1.727v-1.136c0-1.091-.636-1.681-1.727-1.681h-4.817v-.955c0-2.817 1.773-4.089 3.772-4.089a4.44 4.44 0 011.863.409c1 .363 1.591.227 2.045-.864l.545-1.363c.546-1.227-.045-1.727-.908-2.09zm15.95 8.997c-.909-.273-1.727-.409-2.863-.409-2.59 0-4.635 1.318-6.089 3.499v-1.409c0-1.09-.637-1.726-1.727-1.726h-1.727c-1.091 0-1.727.636-1.727 1.726v19.45c0 1.09.636 1.772 1.727 1.772h2.636c1.09 0 1.681-.682 1.681-1.772V23.471c0-3.271 1.681-5.544 4.681-5.544.636 0 1.363.137 1.999.364.773.227 1.5.091 1.818-1.045l.59-2.272c.319-1.227-.318-1.591-.999-1.818zm114.741-.409c-3.363 0-5.772 1.454-7.271 3.635v-1.545c0-1.09-.636-1.726-1.727-1.726h-1.727c-1.09 0-1.726.636-1.726 1.726v19.45c0 1.09.636 1.772 1.726 1.772h2.636c1.091 0 1.681-.682 1.681-1.772V22.926c0-2.999 2-4.999 4.953-4.999 2.954 0 4.772 2 4.772 4.999v11.361c0 1.09.636 1.772 1.727 1.772h2.635c1.091 0 1.682-.682 1.682-1.772V22.472c0-5.817-3.727-9.725-9.361-9.725zm-49.032 0c-2.727 0-4.863.954-6.408 2.499V5.34c0-1.181-.59-1.909-1.817-1.681l-2.454.454c-1.136.273-1.727.727-1.727 1.772v28.402c0 1.09.636 1.772 1.727 1.772h2.59c1.091 0 1.681-.682 1.681-1.772V22.926c0-2.999 2-4.999 4.954-4.999 2.953 0 4.771 2 4.771 4.999v11.361c0 1.09.636 1.772 1.727 1.772h2.635c1.091 0 1.682-.682 1.682-1.772V22.472c0-5.817-3.726-9.725-9.361-9.725zm21.994 19.767c-2.681 0-4.454-1.363-4.454-3.408 0-2.181 1.909-3.635 4.772-3.635 2.09 0 4.09.772 5.226 1.318v1.681c0 2.227-2.591 4.044-5.544 4.044zm51.213-1.136c-3.817 0-6.317-2.953-6.317-6.68 0-3.726 2.5-6.725 6.317-6.725 3.453 0 6.271 2.408 6.271 6.725 0 4.272-2.818 6.68-6.271 6.68zM129.118 17.2c1.726 0 3.181.591 4.18 1.682.864.863 1.409 2.045 1.636 3.453h-11.633c.454-3.135 2.681-5.135 5.817-5.135zm-25.675 0c1.727 0 3.181.591 4.181 1.682.863.863 1.408 2.045 1.635 3.453H97.626c.455-3.135 2.681-5.135 5.817-5.135z" fill="#24165b" fill-rule="nonzero"/></svg>