<svg viewBox="0 0 242 40" xmlns="http://www.w3.org/2000/svg" fill-rule="evenodd" clip-rule="evenodd" stroke-linejoin="round" stroke-miterlimit="2"><path d="M796.606 87.271c0-.873-.872-1.582-1.946-1.582h-37.672c-3.671 0-6.652 2.425-6.652 5.412v13.504c0 .943.94 1.708 2.099 1.708h37.643c3.603 0 6.528-2.38 6.528-5.312v-13.73z" fill="url(#_Linear1)" transform="matrix(.25539 -.44235 .7249 0 -246.432 352.387)"/><path d="M796.606 87.271c0-.873-.872-1.582-1.946-1.582h-37.672c-3.671 0-6.652 2.425-6.652 5.412v13.504c0 .943.94 1.708 2.099 1.708h37.643c3.603 0 6.528-2.38 6.528-5.312v-13.73z" fill="url(#_Linear2)" transform="matrix(.25539 .44235 -.36245 .62778 -129.281 -377.306)"/><path d="M796.606 87.271c0-.873-.872-1.582-1.946-1.582h-37.672c-3.671 0-6.652 2.425-6.652 5.412v13.504c0 .943.94 1.708 2.099 1.708h37.643c3.603 0 6.528-2.38 6.528-5.312v-13.73z" fill="url(#_Linear3)" transform="matrix(.51078 0 .36245 .62778 -415.75 -31.694)"/><path d="M179.608 12.747c-2.817 0-5.771.727-8.407 2.499-.817.5-1.181 1.318-.499 2.5l.409.727c.59.999 1.363 1.181 2.272.636 1.59-1.091 3.635-1.772 5.816-1.772 3.136 0 5.044 1.636 5.044 4.271v1.227c-1.772-.727-3.771-1.227-5.907-1.227-5.817 0-9.725 3.09-9.725 7.725 0 4.363 3.59 7.316 8.907 7.316 2.908 0 5.544-1.226 7.498-3.135v.773c0 1.09.636 1.772 1.727 1.772h1.454c1.09 0 1.681-.636 1.681-1.772V22.29c0-6.726-4.544-9.543-10.27-9.543zm-55.893 13.315h15.723c1.363 0 1.863-.591 1.863-1.864 0-3.181-1.182-6.18-3.318-8.27-1.954-1.954-4.862-3.181-8.315-3.181-6.862 0-11.906 5.09-11.906 11.951 0 7.271 5.544 11.951 12.36 11.951 3.226 0 7.271-1.09 9.588-3.453.5-.545.864-1.227 0-2.09l-1.09-1.091c-.727-.773-1.364-.636-2.182 0-1.999 1.545-3.999 2.045-5.771 2.045-3.499 0-6.589-2.136-6.952-5.998zM240.182 3.659l-2.544.454c-1.091.273-1.682.727-1.682 1.772v9.089a11.396 11.396 0 00-6.771-2.227c-6.68 0-11.451 5.226-11.451 11.951 0 6.68 4.771 11.951 11.451 11.951 3.181 0 5.772-1.317 7.589-3.317v.955c0 1.09.591 1.772 1.682 1.772h1.817c1.091 0 1.727-.682 1.727-1.772V5.34c0-1.181-.591-1.909-1.818-1.681zM98.04 26.062h15.723c1.363 0 1.863-.591 1.863-1.864 0-3.181-1.182-6.18-3.317-8.27-1.954-1.954-4.863-3.181-8.316-3.181-6.862 0-11.906 5.09-11.906 11.951 0 7.271 5.544 11.951 12.36 11.951 3.227 0 7.271-1.09 9.589-3.453.499-.545.863-1.227 0-2.09l-1.091-1.091c-.727-.773-1.363-.636-2.181 0-2 1.545-3.999 2.045-5.771 2.045-3.499 0-6.59-2.136-6.953-5.998zM75.183 4.159c-1.091-.5-2.681-.818-4.226-.818-4.545 0-9.134 2.681-9.134 8.815v.955h-2.136c-1.091 0-1.727.59-1.727 1.681v1.136c0 1.091.636 1.727 1.727 1.727h2.136v16.632c0 1.09.636 1.772 1.727 1.772h2.635c1.091 0 1.682-.682 1.682-1.772V17.655h4.816c1.091 0 1.727-.636 1.727-1.727v-1.136c0-1.091-.636-1.681-1.727-1.681h-4.816v-.955c0-2.817 1.772-4.089 3.771-4.089.636 0 1.273.136 1.863.408 1 .364 1.591.228 2.045-.863l.545-1.363c.546-1.227-.045-1.727-.908-2.09zm15.95 8.997c-.909-.273-1.727-.409-2.863-.409-2.59 0-4.635 1.318-6.089 3.499v-1.409c0-1.09-.636-1.726-1.727-1.726h-1.727c-1.09 0-1.727.636-1.727 1.726v19.45c0 1.09.637 1.772 1.727 1.772h2.636c1.09 0 1.681-.682 1.681-1.772V23.471c0-3.271 1.681-5.544 4.681-5.544.636 0 1.363.137 1.999.364.773.227 1.5.091 1.818-1.045l.59-2.272c.319-1.227-.318-1.591-.999-1.818zm114.741-.409c-3.363 0-5.771 1.454-7.271 3.635v-1.545c0-1.09-.636-1.726-1.727-1.726h-1.727c-1.09 0-1.726.636-1.726 1.726v19.45c0 1.09.636 1.772 1.726 1.772h2.636c1.091 0 1.681-.682 1.681-1.772V22.926c0-2.999 2-4.999 4.954-4.999 2.953 0 4.771 2 4.771 4.999v11.361c0 1.09.636 1.772 1.727 1.772h2.635c1.091 0 1.682-.682 1.682-1.772V22.472c0-5.817-3.727-9.725-9.361-9.725zm-49.032 0c-2.727 0-4.862.954-6.407 2.499V5.34c0-1.181-.591-1.909-1.818-1.681l-2.454.454c-1.136.273-1.727.727-1.727 1.772v28.402c0 1.09.636 1.772 1.727 1.772h2.59c1.091 0 1.682-.682 1.682-1.772V22.926c0-2.999 1.999-4.999 4.953-4.999 2.953 0 4.771 2 4.771 4.999v11.361c0 1.09.636 1.772 1.727 1.772h2.636c1.09 0 1.681-.682 1.681-1.772V22.472c0-5.817-3.726-9.725-9.361-9.725zm21.994 19.767c-2.681 0-4.454-1.363-4.454-3.408 0-2.181 1.909-3.635 4.772-3.635 2.09 0 4.09.772 5.226 1.318v1.681c0 2.227-2.591 4.044-5.544 4.044zm51.213-1.136c-3.817 0-6.317-2.954-6.317-6.68 0-3.726 2.5-6.725 6.317-6.725 3.453 0 6.271 2.408 6.271 6.725 0 4.272-2.818 6.68-6.271 6.68zM129.577 17.2c1.726 0 3.181.591 4.18 1.682.864.863 1.409 2.045 1.636 3.453H123.76c.455-3.135 2.681-5.135 5.817-5.135zm-25.675 0c1.727 0 3.181.591 4.181 1.682.863.863 1.408 2.045 1.636 3.453H98.085c.455-3.135 2.681-5.135 5.817-5.135z" fill="#24165b" fill-rule="nonzero"/><defs><linearGradient id="_Linear1" x1="0" y1="0" x2="1" y2=".148" gradientUnits="userSpaceOnUse" gradientTransform="matrix(35.6334 -26.7153 23.1477 36.6339 750.336 104.168)"><stop offset="0" stop-color="#b656ff"/><stop offset="1" stop-color="#7d0bfa"/></linearGradient><linearGradient id="_Linear2" x1="0" y1="0" x2="1" y2=".149" gradientUnits="userSpaceOnUse" gradientTransform="matrix(41.7151 -30.0808 23.6363 43.5194 750.014 105.158)"><stop offset="0" stop-color="#ff85da"/><stop offset="1" stop-color="#ff53f3"/></linearGradient><linearGradient id="_Linear3" x1="0" y1="0" x2="1" y2=".161" gradientUnits="userSpaceOnUse" gradientTransform="matrix(44.6367 -34.2854 29.0459 46.0069 752.465 120.557)"><stop offset="0" stop-color="#03a5ff"/><stop offset="1" stop-color="#24d6ff"/></linearGradient></defs></svg>