<svg viewBox="0 0 286 219" xmlns="http://www.w3.org/2000/svg" fill-rule="evenodd" clip-rule="evenodd" stroke-linejoin="round" stroke-miterlimit="2">
  <path d="M144.913 87.152c-.484-.838-1.558-1.519-2.397-1.519h-29.433c-2.868 0-3.853 2.329-2.197 5.197l7.487 12.967c.523.906 1.681 1.64 2.587 1.64h29.41c2.815 0 3.78-2.285 2.155-5.1l-7.612-13.185z" fill="#37deff"/>
  <path d="M175.14 97.502c.483-.838.536-2.109.116-2.836L160.54 69.177c-1.434-2.484-3.943-2.172-5.599.696l-7.486 12.967c-.523.906-.58 2.276-.127 3.06l14.705 25.47c1.407 2.438 3.87 2.132 5.495-.684l7.611-13.184z" fill="#ff68e8"/>
  <path d="M141.095 51.846c-.968 0-2.095.59-2.514 1.317l-14.717 25.489c-1.434 2.484.09 4.5 3.403 4.5h14.973c1.045 0 2.26-.635 2.714-1.42l14.704-25.47c1.408-2.437-.088-4.416-3.34-4.416h-15.223z" fill="#992ffc"/>
  <path d="M179.379 137.292c-3.477 0-7.123.897-10.376 3.085-1.01.617-1.458 1.626-.617 3.084l.505.898c.729 1.234 1.682 1.458 2.804.785 1.963-1.346 4.487-2.187 7.179-2.187 3.87 0 6.226 2.019 6.226 5.272v1.514c-2.188-.897-4.655-1.514-7.292-1.514-7.179 0-12.002 3.813-12.002 9.534 0 5.384 4.431 9.03 10.993 9.03 3.589 0 6.842-1.514 9.254-3.87v.954c0 1.346.785 2.187 2.131 2.187h1.795c1.346 0 2.075-.785 2.075-2.187V149.07c0-8.301-5.608-11.778-12.675-11.778zm-68.986 16.433h19.406c1.683 0 2.3-.729 2.3-2.3 0-3.926-1.459-7.627-4.095-10.207-2.411-2.412-6.001-3.926-10.263-3.926-8.469 0-14.695 6.281-14.695 14.75 0 8.974 6.843 14.751 15.255 14.751 3.983 0 8.974-1.346 11.835-4.263.616-.673 1.065-1.514 0-2.579l-1.347-1.347c-.897-.953-1.682-.785-2.692 0-2.467 1.907-4.935 2.524-7.123 2.524-4.318 0-8.132-2.636-8.581-7.403zm143.748-27.65l-3.141.561c-1.346.336-2.075.897-2.075 2.187v11.217c-2.299-1.682-5.16-2.748-8.357-2.748-8.244 0-14.133 6.45-14.133 14.75 0 8.245 5.889 14.751 14.133 14.751 3.926 0 7.123-1.626 9.367-4.094v1.178c0 1.346.729 2.187 2.075 2.187h2.243c1.346 0 2.132-.841 2.132-2.187V128.15c0-1.458-.729-2.356-2.244-2.075zm-175.436 27.65h19.406c1.682 0 2.299-.729 2.299-2.3 0-3.926-1.458-7.627-4.094-10.207-2.412-2.412-6.001-3.926-10.264-3.926-8.469 0-14.694 6.281-14.694 14.75 0 8.974 6.842 14.751 15.255 14.751 3.982 0 8.974-1.346 11.834-4.263.617-.673 1.066-1.514 0-2.579l-1.346-1.347c-.897-.953-1.683-.785-2.692 0-2.468 1.907-4.936 2.524-7.123 2.524-4.319 0-8.132-2.636-8.581-7.403zm-28.211-27.033c-1.346-.617-3.309-1.01-5.216-1.01-5.609 0-11.273 3.309-11.273 10.881v1.178h-2.637c-1.346 0-2.131.729-2.131 2.075v1.402c0 1.346.785 2.131 2.131 2.131h2.637v20.528c0 1.346.785 2.187 2.131 2.187h3.253c1.346 0 2.075-.841 2.075-2.187v-20.528h5.945c1.346 0 2.131-.785 2.131-2.131v-1.402c0-1.346-.785-2.075-2.131-2.075h-5.945v-1.178c0-3.478 2.187-5.048 4.655-5.048.785 0 1.57.168 2.3.505 1.233.449 1.963.28 2.523-1.066l.673-1.682c.673-1.515-.056-2.132-1.121-2.58zm19.686 11.105c-1.122-.337-2.131-.505-3.534-.505-3.196 0-5.72 1.626-7.515 4.318v-1.738c0-1.346-.785-2.131-2.131-2.131h-2.132c-1.346 0-2.131.785-2.131 2.131v24.005c0 1.346.785 2.187 2.131 2.187h3.253c1.346 0 2.076-.841 2.076-2.187v-13.349c0-4.038 2.075-6.842 5.776-6.842.786 0 1.683.168 2.468.448.954.281 1.851.113 2.244-1.29l.729-2.804c.392-1.514-.393-1.963-1.234-2.243zm141.616-.505c-4.15 0-7.122 1.795-8.973 4.487v-1.907c0-1.346-.785-2.131-2.132-2.131h-2.131c-1.346 0-2.131.785-2.131 2.131v24.005c0 1.346.785 2.187 2.131 2.187h3.253c1.346 0 2.075-.841 2.075-2.187v-14.022c0-3.702 2.468-6.169 6.114-6.169 3.645 0 5.889 2.467 5.889 6.169v14.022c0 1.346.785 2.187 2.131 2.187h3.253c1.346 0 2.075-.841 2.075-2.187v-14.583c0-7.179-4.599-12.002-11.554-12.002zm-60.516 0c-3.365 0-6.001 1.178-7.908 3.085V128.15c0-1.458-.729-2.356-2.244-2.075l-3.028.561c-1.402.336-2.132.897-2.132 2.187v35.054c0 1.346.786 2.187 2.132 2.187h3.197c1.346 0 2.075-.841 2.075-2.187v-14.022c0-3.702 2.468-6.169 6.113-6.169 3.646 0 5.889 2.467 5.889 6.169v14.022c0 1.346.785 2.187 2.131 2.187h3.253c1.346 0 2.076-.841 2.076-2.187v-14.583c0-7.179-4.599-12.002-11.554-12.002zm27.145 24.397c-3.309 0-5.496-1.682-5.496-4.206 0-2.692 2.356-4.487 5.889-4.487 2.58 0 5.048.953 6.45 1.626v2.076c0 2.748-3.197 4.991-6.843 4.991zm63.209-1.402c-4.711 0-7.796-3.646-7.796-8.245 0-4.599 3.085-8.3 7.796-8.3 4.263 0 7.74 2.972 7.74 8.3 0 5.273-3.477 8.245-7.74 8.245zm-124.006-17.499c2.132 0 3.926.729 5.16 2.075 1.066 1.066 1.739 2.524 2.019 4.263h-14.358c.561-3.87 3.31-6.338 7.179-6.338zm-31.688 0c2.131 0 3.926.729 5.16 2.075 1.065 1.066 1.739 2.524 2.019 4.263H78.761c.561-3.87 3.309-6.338 7.179-6.338z" fill="#24165b" fill-rule="nonzero"/>
</svg>
