<svg viewBox="0 0 290 88" xmlns="http://www.w3.org/2000/svg" fill-rule="evenodd" clip-rule="evenodd" stroke-linejoin="round" stroke-miterlimit="2"><path d="M45.003 46.021c-.317-.548-1.019-.993-1.567-.993H24.193c-1.875 0-2.518 1.522-1.436 3.397l4.895 8.478c.342.592 1.099 1.072 1.691 1.072H48.57c1.84 0 2.472-1.494 1.409-3.335l-4.976-8.619z" fill="url(#_Linear1)"/><path d="M64.764 52.787c.317-.548.351-1.379.077-1.854L55.22 34.269c-.938-1.624-2.578-1.42-3.661.455l-4.894 8.478c-.342.591-.379 1.487-.083 2l9.613 16.651c.921 1.594 2.53 1.394 3.593-.447l4.976-8.619z" fill="url(#_Linear2)"/><path d="M42.507 22.939c-.633 0-1.37.385-1.644.86l-9.621 16.665c-.938 1.624.059 2.942 2.224 2.942h9.79c.683 0 1.477-.416 1.773-.928l9.614-16.651c.92-1.594-.058-2.888-2.183-2.888h-9.953z" fill="url(#_Linear3)"/><g fill="#24165b"><path d="M190.255 57.975c3.378 0 6.482-1.096 8.947-3.561.548-.548.868-1.232 0-2.1l-1.597-1.598c-.594-.593-1.233-.821-2.192.046-1.78 1.598-3.469 1.963-4.976 1.963-3.926 0-6.482-2.922-6.482-6.756 0-3.881 2.693-6.757 6.482-6.757 1.507 0 3.196.32 4.976 1.963.959.822 1.598.594 2.192.046l1.597-1.598c.868-.867.548-1.598 0-2.145-2.465-2.42-5.569-3.515-8.947-3.515-7.122 0-12.326 5.112-12.326 12.006 0 6.847 5.204 12.006 12.326 12.006zM253.588 38.694h-.819c-1.924 0-2.531-.485-2.531-1.664v-.691c0-.461.048-.818.136-1.1a1.46 1.46 0 01.336-.608c.364-.402.91-.535 1.528-.791.989-.41 2.072-1.428 3.087-2.832 1.032-1.426 1.993-3.25 2.716-5.239.162-.444.643-.826 1.148-.826h1.193c.938.211.761.978.788 1.779v7.406h5.067c1.096 0 1.781.593 1.781 1.689v1.141c0 1.096-.685 1.735-1.781 1.735h-5.067V49.21c0 2.556 1.233 3.515 3.013 3.515.776 0 1.461-.32 2.1-.685 1.05-.639 1.552-.182 1.963.594l.822 1.917c.502.959-.183 1.552-.776 1.963-1.279.913-3.105 1.461-5.113 1.461-4.337 0-8.035-2.557-8.035-8.217V38.693l-1.556.001zM141.649 47.338h15.796c1.369 0 1.872-.594 1.872-1.872 0-3.196-1.187-6.209-3.333-8.309-1.963-1.963-4.885-3.196-8.355-3.196-6.893 0-11.961 5.113-11.961 12.007 0 7.305 5.57 12.007 12.418 12.007 3.241 0 7.304-1.096 9.633-3.47.502-.548.867-1.232 0-2.1l-1.096-1.096c-.73-.776-1.37-.639-2.191 0-2.009 1.553-4.018 2.055-5.798 2.055-3.516 0-6.62-2.146-6.985-6.026zm.14-4.27c.619-2.846 2.778-4.633 5.749-4.633 1.735 0 3.196.594 4.2 1.689.758.758 1.271 1.759 1.541 2.944h-11.49zM247.045 57.381h-1.461c-1.096 0-1.735-.684-1.735-1.78v-.776c-1.963 1.917-4.611 3.15-7.532 3.15-5.342 0-8.948-2.967-8.948-7.35 0-4.656 3.926-7.761 9.769-7.761 1.99 0 3.862.432 5.543 1.077v-1.077c0-1.196-.425-2.169-1.214-2.839-.813-.691-1.996-1.06-3.461-1.06-2.108 0-4.085.658-5.622 1.712l-.02.013c-.565.339-1.091.432-1.564.305-.466-.125-.897-.47-1.258-1.081a.016.016 0 00-.004-.007l-.408-.727c-.36-.624-.562-1.572.52-2.473a4.643 4.643 0 01.507-.359l.002.001c2.6-1.69 5.494-2.386 8.258-2.386 5.752 0 10.317 2.83 10.317 9.586v12.052c0 1.141-.594 1.78-1.689 1.78zm-4.358-8.979c-1.123-.509-2.888-1.135-4.727-1.135-2.527 0-4.271 1.205-4.271 3.13 0 1.787 1.608 2.901 3.951 2.901 1.634 0 3.15-.592 4.099-1.518.584-.569.948-1.265.948-2.022v-1.356z"/><path d="M134.381 34.326h-2.328c-1.142 0-1.735.594-2.146 1.735L124.2 49.168l-5.752-13.107c-.457-1.141-1.004-1.735-2.146-1.735h-2.648c-1.05 0-1.735.731-1.278 1.735l9.45 19.859c.502 1.096 1.279 1.69 2.237 1.69h.274c.959 0 1.735-.594 2.237-1.69l9.085-19.859c.457-1.004-.182-1.735-1.278-1.735zM176.528 34.372c-.913-.274-1.735-.411-2.876-.411-3.086 0-5.026.906-6.118 2.544v-.444c0-1.095-.639-1.735-1.735-1.735h-1.735c-1.095 0-1.734.64-1.734 1.735v19.54c0 1.096.639 1.78 1.734 1.78h2.648c1.096 0 1.69-.684 1.69-1.78V44.735c0-3.287 1.689-5.569 4.702-5.569a6.24 6.24 0 012.009.365c.776.228 1.506.091 1.826-1.05l.593-2.283c.32-1.232-.319-1.598-1.004-1.826z" fill-rule="nonzero"/><path d="M213.264 57.879c6.876 0 11.848-5.009 11.848-11.91 0-6.891-4.983-11.957-11.848-11.957-6.856 0-11.896 5.076-11.896 11.957 0 6.89 4.946 11.91 11.896 11.91zm0-5.2c-3.914 0-6.696-2.83-6.696-6.71 0-3.881 2.829-6.757 6.696-6.757 3.866 0 6.648 2.876 6.648 6.757 0 3.88-2.782 6.71-6.648 6.71zM95.121 58.08c9.11 0 15.664-6.605 15.664-15.659 0-9.043-6.564-15.729-15.664-15.729-9.088 0-15.736 6.697-15.736 15.729 0 9.043 6.526 15.659 15.736 15.659zm0-5.5c-5.983 0-10.236-4.285-10.236-10.159 0-5.875 4.325-10.229 10.236-10.229 5.911 0 10.164 4.354 10.164 10.229 0 5.874-4.253 10.159-10.164 10.159z"/></g><defs><linearGradient id="_Linear1" x1="0" y1="0" x2="1" y2="-.79" gradientUnits="userSpaceOnUse" gradientTransform="matrix(16.4343 -12.9473 12.291 4.90816 28.46 57.975)"><stop offset="0" stop-color="#03a5ff"/><stop offset="1" stop-color="#4af2ff"/></linearGradient><linearGradient id="_Linear2" x1="0" y1="0" x2="1" y2="-.79" gradientUnits="userSpaceOnUse" gradientTransform="matrix(18.6439 8.09512 1.46214 12.7742 46.382 43.406)"><stop offset="0" stop-color="#ff85da"/><stop offset="1" stop-color="#ff53f3"/></linearGradient><linearGradient id="_Linear3" x1="0" y1="0" x2="1" y2="-.79" gradientUnits="userSpaceOnUse" gradientTransform="matrix(-2.32715 -20.4672 10.4766 -7.74852 42.94 43.406)"><stop offset="0" stop-color="#b656ff"/><stop offset="1" stop-color="#7d0bfa"/></linearGradient></defs></svg>