<svg viewBox="0 0 44 44" xmlns="http://www.w3.org/2000/svg" fill-rule="evenodd" clip-rule="evenodd" stroke-linejoin="round" stroke-miterlimit="2"><path d="M796.606 87.271c0-.873-.872-1.582-1.946-1.582h-37.672c-3.671 0-6.652 2.425-6.652 5.412v13.504c0 .943.94 1.708 2.099 1.708h37.643c3.603 0 6.528-2.38 6.528-5.312v-13.73z" fill="url(#_Linear1)" transform="matrix(.51078 0 .36245 .62778 -415.147 -29.7)"/><path d="M796.606 87.271c0-.873-.872-1.582-1.946-1.582h-37.672c-3.671 0-6.652 2.425-6.652 5.412v13.504c0 .943.94 1.708 2.099 1.708h37.643c3.603 0 6.528-2.38 6.528-5.312v-13.73z" fill="url(#_Linear2)" transform="matrix(.25539 .44235 -.36245 .62778 -128.679 -375.311)"/><path d="M796.606 87.271c0-.873-.872-1.582-1.946-1.582h-37.672c-3.671 0-6.652 2.425-6.652 5.412v13.504c0 .943.94 1.708 2.099 1.708h37.643c3.603 0 6.528-2.38 6.528-5.312v-13.73z" fill="url(#_Linear3)" transform="matrix(.25539 -.44235 .7249 0 -245.829 354.382)"/><defs><linearGradient id="_Linear1" x1="0" y1="0" x2="1" y2="-.79" gradientUnits="userSpaceOnUse" gradientTransform="matrix(46.8097 -20.624 18.5154 7.81834 750.705 106.313)"><stop offset="0" stop-color="#03a5ff"/><stop offset="1" stop-color="#4af2ff"/></linearGradient><linearGradient id="_Linear2" x1="0" y1="0" x2="1" y2="-.79" gradientUnits="userSpaceOnUse" gradientTransform="matrix(45.651 -19.2721 17.3016 8.15713 750.014 105.158)"><stop offset="0" stop-color="#ff85da"/><stop offset="1" stop-color="#ff53f3"/></linearGradient><linearGradient id="_Linear3" x1="0" y1="0" x2="1" y2="-.79" gradientUnits="userSpaceOnUse" gradientTransform="matrix(46.2695 -19.5117 17.5168 8.2812 750.336 104.168)"><stop offset="0" stop-color="#b656ff"/><stop offset="1" stop-color="#7d0bfa"/></linearGradient></defs></svg>