<svg viewBox="0 0 270 140" xmlns="http://www.w3.org/2000/svg" fill-rule="evenodd" clip-rule="evenodd" stroke-linejoin="round" stroke-miterlimit="2"><path d="M137.21 54.475c-.453-.785-1.459-1.423-2.244-1.423h-27.55c-2.684 0-3.606 2.18-2.056 4.865l7.008 12.138c.489.847 1.574 1.534 2.421 1.534h27.528c2.635 0 3.539-2.139 2.018-4.774l-7.125-12.34z" fill="#1fc3ff"/><path d="M165.503 64.162c.453-.785.502-1.975.11-2.655l-13.775-23.859c-1.343-2.325-3.691-2.033-5.241.652l-7.008 12.138c-.489.847-.542 2.13-.119 2.864l13.765 23.84c1.317 2.282 3.622 1.995 5.143-.64l7.125-12.34z" fill="#ff69e8"/><path d="M133.637 21.427c-.907 0-1.962.552-2.354 1.232l-13.775 23.859c-1.343 2.325.085 4.213 3.185 4.213h14.015c.978 0 2.116-.596 2.54-1.329l13.764-23.84c1.317-2.282-.083-4.135-3.126-4.135h-14.249z" fill="#9c34fd"/><g fill="#24165b"><path d="M53.178 119.503c9.27 0 16.279-6.686 16.279-15.541 0-8.9-7.009-15.54-16.279-15.54-9.222 0-16.278 6.64-16.278 15.54 0 8.901 7.056 15.541 16.278 15.541zm0-5.626c-5.579 0-9.914-4.15-9.914-9.915 0-5.81 4.335-9.914 9.914-9.914 5.58 0 9.961 4.104 9.961 9.914 0 5.765-4.381 9.915-9.961 9.915zM93.252 95.662H90.9c-1.153 0-1.752.599-2.167 1.752l-5.764 14.25-5.811-14.25c-.461-1.153-1.014-1.752-2.167-1.752h-2.675c-1.061 0-1.752.738-1.291 1.752l9.546 20.06c.507 1.107 1.291 1.706 2.259 1.706h.277c.968 0 1.752-.599 2.26-1.706l9.176-20.06c.462-1.014-.184-1.752-1.291-1.752z" fill-rule="nonzero"/><path d="M101.784 109.194c.534 3.674 3.578 5.698 7.009 5.698 1.798 0 3.827-.508 5.856-2.075.83-.646 1.476-.784 2.214 0l1.107 1.106c.876.876.507 1.568 0 2.122-2.352 2.398-6.456 3.504-9.731 3.504-6.917 0-12.543-4.75-12.543-12.128 0-6.963 5.119-12.128 12.082-12.128 3.505 0 6.456 1.245 8.439 3.228 2.168 2.121 3.367 5.165 3.367 8.393l-.015.38a1.902 1.902 0 01-1.901 1.901h-15.85l-.034-.001zm5.902-9.382c1.752 0 3.228.6 4.243 1.706.876.877 1.429 2.076 1.66 3.505h-11.806c.462-3.182 2.721-5.211 5.903-5.211z"/><path d="M137.983 95.708c-.922-.277-1.752-.415-2.905-.415-2.628 0-4.703 1.337-6.179 3.551v-1.43c0-1.107-.646-1.752-1.753-1.752h-1.752c-1.107 0-1.752.645-1.752 1.752v19.737c0 1.107.645 1.799 1.752 1.799h2.675c1.107 0 1.706-.692 1.706-1.799v-10.975c0-3.32 1.706-5.626 4.75-5.626.645 0 1.383.138 2.029.369.784.23 1.522.092 1.844-1.061l.6-2.305c.323-1.246-.323-1.614-1.015-1.845zM151.864 119.549c3.412 0 6.548-1.106 9.038-3.597.554-.553.877-1.245 0-2.121l-1.614-1.614c-.599-.599-1.245-.83-2.213.046-1.799 1.614-3.505 1.983-5.027 1.983-3.965 0-6.548-2.951-6.548-6.825 0-3.92 2.721-6.825 6.548-6.825 1.522 0 3.228.323 5.027 1.983.968.83 1.614.6 2.213.046l1.614-1.614c.877-.876.554-1.614 0-2.167-2.49-2.444-5.626-3.551-9.038-3.551-7.194 0-12.451 5.165-12.451 12.128 0 6.917 5.257 12.128 12.451 12.128zM176.028 119.549c7.286 0 12.589-5.211 12.589-12.128s-5.303-12.128-12.589-12.128c-7.286 0-12.635 5.211-12.635 12.128s5.349 12.128 12.635 12.128zm0-5.349c-3.827 0-6.548-2.859-6.548-6.779s2.767-6.825 6.548-6.825 6.502 2.905 6.502 6.825c0 3.92-2.721 6.779-6.502 6.779z" fill-rule="nonzero"/><path d="M217.41 100.224h-.821c-1.928 0-2.536-.486-2.536-1.668v-.692c0-.462.048-.82.136-1.103.068-.241.182-.445.336-.61.366-.402.913-.536 1.532-.792.991-.411 2.077-1.431 3.094-2.839 1.034-1.429 1.998-3.258 2.722-5.251.162-.445.644-.828 1.15-.828h1.197c.939.211.762.981.79 1.783v7.423h5.079c1.098 0 1.784.595 1.784 1.693v1.144c0 1.098-.686 1.739-1.784 1.739h-5.079v10.541c0 2.562 1.235 3.523 3.02 3.523.777 0 1.464-.32 2.104-.686 1.053-.641 1.556-.183 1.968.595l.823 1.922c.504.96-.183 1.555-.777 1.967-1.282.915-3.112 1.464-5.125 1.464-4.347 0-8.053-2.562-8.053-8.236v-11.09l-1.56.001zM210.851 118.954h-1.464c-1.098 0-1.738-.686-1.738-1.784v-.778c-1.968 1.922-4.622 3.157-7.55 3.157-5.354 0-8.968-2.974-8.968-7.366 0-4.668 3.935-7.779 9.791-7.779 1.995 0 3.871.433 5.556 1.08v-1.08c0-1.199-.426-2.174-1.217-2.846-.815-.692-2-1.062-3.469-1.062-2.113 0-4.094.659-5.635 1.715l-.02.013c-.566.34-1.094.433-1.568.306-.466-.125-.898-.471-1.26-1.083l-.004-.008-.41-.728c-.361-.625-.563-1.576.521-2.478.063-.055.131-.107.202-.157.095-.068.197-.136.307-.203l.002.001c2.606-1.695 5.507-2.392 8.277-2.392 5.765 0 10.34 2.836 10.34 9.608v12.08c0 1.144-.594 1.784-1.693 1.784zm-4.367-9c-1.126-.509-2.895-1.137-4.738-1.137-2.533 0-4.281 1.207-4.281 3.137 0 1.791 1.612 2.908 3.961 2.908 1.637 0 3.157-.594 4.108-1.522.585-.57.95-1.268.95-2.027v-1.359z"/></g></svg>